<svg width="24" height="25" viewBox="0 0 24 25" fill="none" xmlns="http://www.w3.org/2000/svg">
<path d="M22 6.69702V11.797C22 13.067 21.58 14.137 20.83 14.877C20.09 15.627 19.02 16.047 17.75 16.047V17.857C17.75 18.537 16.99 18.947 16.43 18.567L15.46 17.927C15.55 17.617 15.59 17.277 15.59 16.917V12.847C15.59 10.807 14.23 9.44702 12.19 9.44702H5.39999C5.25999 9.44702 5.13 9.45704 5 9.46704V6.69702C5 4.14702 6.7 2.44702 9.25 2.44702H17.75C20.3 2.44702 22 4.14702 22 6.69702Z" stroke="#7F8C8D" stroke-width="1.5" stroke-miterlimit="10" stroke-linecap="round" stroke-linejoin="round"/>
<path d="M15.59 12.847V16.917C15.59 17.277 15.55 17.617 15.46 17.927C15.09 19.397 13.87 20.317 12.19 20.317H9.47L6.45 22.327C6 22.637 5.39999 22.307 5.39999 21.767V20.317C4.37999 20.317 3.53 19.977 2.94 19.387C2.34 18.787 2 17.937 2 16.917V12.847C2 10.947 3.18 9.63704 5 9.46704C5.13 9.45704 5.25999 9.44702 5.39999 9.44702H12.19C14.23 9.44702 15.59 10.807 15.59 12.847Z" stroke="#7F8C8D" stroke-width="1.5" stroke-miterlimit="10" stroke-linecap="round" stroke-linejoin="round"/>
</svg>
