<svg width="24" height="24" viewBox="0 0 24 24" fill="none" xmlns="http://www.w3.org/2000/svg">
<path d="M10.5711 22.97C9.10606 22.76 8.00006 21.484 8.00006 20H8.50006C8.77606 20 9.00006 19.776 9.00006 19.5C9.00006 19.224 8.77606 19 8.50006 19H3.50106C2.75906 19 2.06006 18.674 1.58406 18.104C1.10706 17.536 0.90906 16.791 1.04006 16.06L2.50006 7.884C2.79806 6.212 4.24806 4.999 5.94606 4.999H16.0551C17.7531 4.999 19.2021 6.212 19.5011 7.884L19.6261 8.587C19.6741 8.859 19.9371 9.039 20.2061 8.991C20.4781 8.942 20.6591 8.682 20.6101 8.411L20.4851 7.708C20.1011 5.559 18.2381 3.999 16.0551 3.999H15.4991C15.8141 3.581 16.0001 3.061 16.0001 2.499C16.0001 1.12 14.8781 -0.000999451 13.5001 -0.000999451H8.50006C7.12206 -0.000999451 6.00006 1.12 6.00006 2.499C6.00006 3.061 6.18706 3.581 6.50106 3.999H5.94506C3.76206 3.999 1.89906 5.559 1.51506 7.708L0.0550597 15.885C-0.12794 16.907 0.15006 17.95 0.81706 18.747C1.48406 19.543 2.46206 20 3.50106 20H7.00006C7.00006 21.978 8.47406 23.68 10.4291 23.96C10.4531 23.963 10.4771 23.965 10.5001 23.965C10.7451 23.965 10.9581 23.785 10.9951 23.536C11.0341 23.263 10.8441 23.009 10.5711 22.97ZM7.00006 2.5C7.00006 1.673 7.67306 1 8.50006 1H13.5001C14.3271 1 15.0001 1.673 15.0001 2.5C15.0001 3.327 14.3271 4 13.5001 4H8.50006C7.67306 4 7.00006 3.327 7.00006 2.5ZM17.5001 11C13.9161 11 11.0001 13.916 11.0001 17.5C11.0001 21.084 13.9161 24 17.5001 24C21.0841 24 24.0001 21.084 24.0001 17.5C24.0001 13.916 21.0841 11 17.5001 11ZM17.5001 23C14.4671 23 12.0001 20.532 12.0001 17.5C12.0001 14.468 14.4671 12 17.5001 12C20.5331 12 23.0001 14.468 23.0001 17.5C23.0001 20.532 20.5331 23 17.5001 23ZM21.0001 17.5C21.0001 17.776 20.7761 18 20.5001 18H18.0001V20.5C18.0001 20.776 17.7761 21 17.5001 21C17.2241 21 17.0001 20.776 17.0001 20.5V18H14.5001C14.2241 18 14.0001 17.776 14.0001 17.5C14.0001 17.224 14.2241 17 14.5001 17H17.0001V14.5C17.0001 14.224 17.2241 14 17.5001 14C17.7761 14 18.0001 14.224 18.0001 14.5V17H20.5001C20.7761 17 21.0001 17.224 21.0001 17.5Z" fill="#7F8C8D"/>
</svg>
