<svg width="30" height="31" viewBox="0 0 30 31" fill="none" xmlns="http://www.w3.org/2000/svg">
<path d="M15 28C21.9036 28 27.5 22.4036 27.5 15.5C27.5 8.59644 21.9036 3 15 3C8.09644 3 2.5 8.59644 2.5 15.5C2.5 22.4036 8.09644 28 15 28Z" stroke="#7F8C8D" stroke-width="1.875" stroke-linecap="round" stroke-linejoin="round"/>
<path d="M10.8497 15.3875L12.9122 15.9L11.7247 20.7001C11.4497 21.8251 11.9997 22.2 12.9497 21.5375L19.4247 17.05C20.2122 16.5 20.0997 15.8625 19.1622 15.625L17.0997 15.1125L18.2872 10.3125C18.5622 9.18749 18.0122 8.81252 17.0622 9.47502L10.5872 13.9626C9.79972 14.5126 9.91221 15.15 10.8497 15.3875Z" stroke="#7F8C8D" stroke-width="1.875" stroke-miterlimit="10" stroke-linecap="round" stroke-linejoin="round"/>
</svg>
