<svg width="30" height="31" viewBox="0 0 30 31" fill="none" xmlns="http://www.w3.org/2000/svg">
<path d="M21.3722 25.6737C21.4936 25.6737 21.592 25.577 21.592 25.4576C21.592 25.3383 21.4936 25.2416 21.3722 25.2416C21.2508 25.2416 21.1523 25.3383 21.1523 25.4576C21.1523 25.577 21.2508 25.6737 21.3722 25.6737Z" fill="#7F8C8D"/>
<path d="M28.6233 27.8343H27.7444L27.5686 24.2038L27.3923 20.5743L27.2166 16.9443L27.0412 13.3147L26.8655 9.68472H26.7844C26.9956 9.4462 27.1129 9.13898 27.1144 8.82035C27.1144 8.43363 26.9437 8.07175 26.6583 7.82285C26.6692 7.7466 26.6747 7.67097 26.6747 7.59597C26.6747 6.60035 25.8234 5.77628 24.8189 5.83253C24.7574 5.69984 24.6837 5.5732 24.5986 5.45425C24.6052 5.39582 24.6084 5.3366 24.6084 5.2766C24.6084 3.87457 23.452 2.7341 22.0308 2.7341C21.9276 2.73449 21.8246 2.74169 21.7223 2.75566C21.483 2.35203 21.1422 2.01803 20.7339 1.7868C20.3255 1.55558 19.8638 1.43517 19.3945 1.43753C18.7707 1.43816 18.1663 1.65481 17.6841 2.05066C17.1536 1.65025 16.5065 1.43487 15.8419 1.43753C15.2447 1.4377 14.6606 1.612 14.1609 1.9391C13.2356 1.27019 11.8636 1.29269 10.9523 2.01503C9.91547 1.34097 8.52094 1.2566 7.40391 1.81628C6.83205 1.56554 6.21426 1.43656 5.58984 1.43753C3.10828 1.43753 1.08937 3.42597 1.08937 5.8705C1.08937 8.31503 3.10828 10.3039 5.58984 10.3039C7.06781 10.3039 8.42578 9.60222 9.27047 8.41441C9.85706 8.37387 10.4242 8.18742 10.9205 7.87201C11.4167 7.5566 11.8263 7.12222 12.112 6.60832C12.6096 6.7069 13.1253 6.65568 13.5938 6.46113C13.8809 6.7705 14.2288 7.01724 14.6157 7.18591C15.0027 7.35457 15.4203 7.44151 15.8423 7.44128C16.2694 7.44259 16.6921 7.35408 17.0827 7.18151C17.4734 7.00894 17.8235 6.75616 18.1102 6.43957C18.6588 6.74352 19.2982 6.84096 19.9125 6.71425C20.0559 6.92191 20.2275 7.1066 20.422 7.26175C20.6555 8.30378 21.5958 9.06644 22.6913 9.06644C23.0236 9.06644 23.348 8.99707 23.6475 8.86207C23.8894 9.09597 24.1908 9.25581 24.5217 9.32378C24.5756 9.45691 24.6516 9.57785 24.7434 9.68472H24.2292L24.0534 13.3147L23.8772 16.9443L23.7014 20.5743L23.5261 24.2038L23.3503 27.8343V19.1914H18.0769L12.8034 14.87V19.1914L7.53 14.87V19.1914L2.25656 14.87V27.8338H1.37719C1.26164 27.8333 1.15057 27.8785 1.06821 27.9595C0.985843 28.0406 0.93886 28.1509 0.9375 28.2664V29.1303C0.9375 29.368 1.13484 29.5625 1.37719 29.5625H28.6233C28.7387 29.563 28.8497 29.5179 28.9319 29.4369C29.0142 29.356 29.0611 29.2458 29.0625 29.1303V28.2664C29.0611 28.151 29.0142 28.0408 28.9319 27.9599C28.8497 27.8789 28.7387 27.8337 28.6233 27.8343ZM24.1617 8.01597L23.9025 7.59222L23.4942 7.87582C23.2584 8.04023 22.9778 8.12841 22.6903 8.12847C21.9937 8.12847 21.4022 7.61472 21.3145 6.9341L21.2869 6.72222L21.1092 6.6041C20.8707 6.4421 20.6791 6.22011 20.5537 5.9605L20.3714 5.58644L19.9781 5.72332C19.3336 5.94738 18.7692 5.81519 18.2939 5.44207L17.8941 5.1266L17.6133 5.55316C17.4204 5.84641 17.1574 6.0869 16.848 6.25281C16.5387 6.41873 16.1929 6.50483 15.8419 6.50332C15.5015 6.50379 15.1661 6.42244 14.8637 6.26614C14.5614 6.10984 14.3011 5.88315 14.1047 5.60519L13.8548 5.24941L13.4813 5.4716C13.0355 5.73691 12.5536 5.803 12.0169 5.61035L11.5936 5.45847L11.4244 5.87472C11.0278 6.84972 10.0814 7.48207 9.01266 7.48582L8.75484 7.48675L8.6175 7.70472C7.96125 8.74441 6.82922 9.3655 5.58984 9.3655C3.62531 9.3655 2.02687 7.79707 2.02687 5.86957C2.02687 3.943 3.62484 2.37503 5.58984 2.37503C6.15609 2.37503 6.70078 2.50488 7.20844 2.76035L7.43766 2.87566L7.65844 2.74488C8.60016 2.1866 9.85594 2.29019 10.6875 2.98207L11.0316 3.268L11.3334 2.938C11.4933 2.76043 11.6888 2.61852 11.9072 2.52152C12.1256 2.42452 12.362 2.37461 12.6009 2.37503C13.0554 2.37317 13.492 2.5517 13.815 2.87144L14.123 3.17566L14.4506 2.89253C14.8372 2.55865 15.331 2.37497 15.8419 2.37503C16.4208 2.37503 16.9617 2.60191 17.3639 3.01441L17.7202 3.3791L18.0539 2.99332C18.2202 2.80041 18.4259 2.6454 18.6571 2.53875C18.8884 2.43209 19.1399 2.37626 19.3945 2.37503C20.1187 2.37503 20.7609 2.803 21.0309 3.46488L21.188 3.85066L21.5897 3.73957C21.7584 3.69269 21.8986 3.67113 22.0308 3.67113C22.9355 3.67113 23.6709 4.39113 23.6709 5.27613C23.6709 5.353 23.6583 5.4266 23.6442 5.51613L23.6119 5.72894L23.752 5.89253C23.9016 6.06644 24.0014 6.25957 24.0492 6.46628L24.1617 6.95378L24.6403 6.80988C24.7359 6.78082 24.8142 6.76769 24.8869 6.76769C25.3552 6.76769 25.7367 7.13894 25.7367 7.5955C25.7367 7.68222 25.7194 7.77222 25.6833 7.87207L25.5333 8.2841L25.9345 8.46082C26.0052 8.49102 26.0657 8.54103 26.1086 8.60483C26.1515 8.66862 26.1751 8.74347 26.1764 8.82035C26.1764 9.03878 25.9922 9.21597 25.7662 9.21597C25.6654 9.21791 25.5675 9.18148 25.4924 9.11405C25.4173 9.04662 25.3706 8.95322 25.3617 8.85269L25.3261 8.42285L24.8616 8.42332C24.7201 8.41955 24.5819 8.38027 24.4596 8.30908C24.3373 8.2379 24.2349 8.13711 24.1617 8.01597ZM24.6145 16.2411L24.7223 14.0178H26.3709L26.4783 16.2411H24.6145ZM24.2634 23.5007L24.3708 21.2774H26.7225L26.8303 23.5007H24.2634ZM22.3537 29.2007H19.0725V28.8163H22.3537V29.2007ZM22.4123 23.5128V26.8972H22.2656V23.5128H22.4123ZM19.6289 27.5999V23.7468H21.7969V27.5999H19.6289ZM19.5117 28.5814V28.0686H21.9141V28.5814H19.5117ZM7.74891 23.7289H12.5831V25.2421H7.74891V23.7289ZM7.30969 25.2416H3.19359V23.7285H7.30969V25.2416ZM13.0223 23.7289H17.6367V25.2421H13.0223V23.7289ZM13.0223 23.2968V21.7841H17.6367V23.2968H13.0223ZM12.5831 23.2968H7.74891V21.7841H12.5831V23.2968ZM7.30969 23.2968H3.19359V21.7841H7.30969V23.2968Z" fill="#7F8C8D"/>
<path d="M10.5604 4.52982C10.5076 4.48534 10.4501 4.44683 10.3888 4.41498C10.3277 4.37832 10.2632 4.34755 10.1962 4.3231C10.117 4.29152 10.0351 4.2672 9.9515 4.25045C9.89224 3.99346 9.7595 3.75926 9.56947 3.57638C9.44983 3.45629 9.31126 3.35668 9.15931 3.28154C9.00726 3.20426 8.8464 3.14571 8.68025 3.10717C8.06009 2.96513 7.3715 3.13857 6.94119 3.52623L6.92853 3.51967C6.84666 3.4871 6.76191 3.46231 6.67541 3.4456C6.50289 3.4155 6.32627 3.41788 6.15462 3.45263C5.82416 3.52763 5.54806 3.73013 5.45056 3.97951C5.66115 3.80856 5.92564 3.71802 6.19681 3.72404C6.32384 3.72451 6.44431 3.7517 6.55166 3.79482C6.614 3.81967 6.63087 3.82904 6.70447 3.86982C6.74572 3.8942 6.78791 3.93076 6.82494 3.96498L6.98712 4.11357L7.18916 3.94576C7.54634 3.6481 8.06619 3.53279 8.52556 3.63217C8.58041 3.64248 8.64134 3.66029 8.69056 3.67529C8.73322 3.68842 8.79275 3.71092 8.86306 3.74513C8.94978 3.7906 9.05947 3.85248 9.1429 3.92138C9.31822 4.06107 9.44431 4.2481 9.52166 4.45435L9.58447 4.61935L9.74056 4.61842C9.84884 4.61795 9.9665 4.61935 10.0677 4.63576C10.1638 4.6456 10.2984 4.69154 10.3954 4.72998C10.6054 4.82045 10.7957 4.96248 10.9438 5.15373C10.912 4.92498 10.7713 4.69951 10.5604 4.52982ZM23.4248 5.80951C23.3944 5.76608 23.3604 5.72531 23.3231 5.68763C23.2799 5.64121 23.2322 5.59927 23.1806 5.56248C23.2231 5.37089 23.2083 5.171 23.1379 4.98779C23.0954 4.86937 23.0332 4.75894 22.9542 4.66107C22.917 4.61305 22.8767 4.56749 22.8337 4.52467C22.7868 4.47867 22.7375 4.43517 22.686 4.39435C22.311 4.10607 21.7898 4.01045 21.3735 4.13935L21.367 4.13092C21.3224 4.08307 21.2729 4.04002 21.2193 4.00248C21.1115 3.9291 20.9913 3.8759 20.8645 3.84545C20.617 3.79388 20.3652 3.84545 20.219 3.9842C20.4155 3.93349 20.6236 3.95408 20.8063 4.04232C20.8921 4.0817 20.9652 4.13795 21.0238 4.19982C21.0585 4.23592 21.0665 4.24763 21.1035 4.29779C21.1237 4.32732 21.1401 4.36529 21.1542 4.39951L21.217 4.55045L21.4073 4.49935C21.7443 4.40842 22.1334 4.49138 22.4123 4.70092C22.446 4.72529 22.4817 4.75576 22.5102 4.78107C22.5351 4.8031 22.5679 4.83732 22.6045 4.88185C22.649 4.93951 22.7029 5.01545 22.7371 5.0881C22.8107 5.23717 22.837 5.40263 22.8234 5.56623L22.8131 5.69748L22.9195 5.74529C22.9926 5.77857 23.0723 5.8156 23.1351 5.85826C23.3518 6.00356 23.5048 6.22629 23.5626 6.48076C23.6156 6.31717 23.5926 6.12123 23.504 5.94076C23.4819 5.89456 23.4553 5.85061 23.4248 5.80951Z" fill="#7F8C8D"/>
</svg>
