<svg width="30" height="31" viewBox="0 0 30 31" fill="none" xmlns="http://www.w3.org/2000/svg">
<path d="M10.8398 18.8593C10.8398 20.4718 12.0773 21.7718 13.6148 21.7718H16.7523C18.0898 21.7718 19.1773 20.6343 19.1773 19.2343C19.1773 17.7093 18.5148 17.1718 17.5273 16.8218L12.4898 15.0718C11.5023 14.7218 10.8398 14.1843 10.8398 12.6593C10.8398 11.2593 11.9273 10.1218 13.2648 10.1218H16.4023C17.9398 10.1218 19.1773 11.4218 19.1773 13.0343" stroke="#EBEBEB" stroke-width="1.5" stroke-linecap="round" stroke-linejoin="round"/>
<path d="M15 8.44702V23.447" stroke="#EBEBEB" stroke-width="1.5" stroke-linecap="round" stroke-linejoin="round"/>
<path d="M15 28.447C21.9036 28.447 27.5 22.8506 27.5 15.947C27.5 9.04346 21.9036 3.44702 15 3.44702C8.09644 3.44702 2.5 9.04346 2.5 15.947C2.5 22.8506 8.09644 28.447 15 28.447Z" stroke="#EBEBEB" stroke-width="1.5" stroke-linecap="round" stroke-linejoin="round"/>
</svg>
