<svg width="30" height="30" viewBox="0 0 30 30" fill="none" xmlns="http://www.w3.org/2000/svg">
<path fill-rule="evenodd" clip-rule="evenodd" d="M10.4004 8.7C10.4004 7.98392 10.6849 7.29716 11.1912 6.79081C11.6976 6.28446 12.3843 6 13.1004 6H16.9008C17.6169 6 18.3036 6.28446 18.81 6.79081C19.3163 7.29716 19.6008 7.98392 19.6008 8.7V11.4H20.6004C20.955 11.4 21.3061 11.4698 21.6336 11.6055C21.9612 11.7412 22.2589 11.9401 22.5096 12.1908C22.7603 12.4415 22.9592 12.7392 23.0949 13.0668C23.2306 13.3943 23.3004 13.7454 23.3004 14.1V16.8H24.3C25.0161 16.8 25.7028 17.0845 26.2092 17.5908C26.7155 18.0972 27 18.7839 27 19.5V23.1C27 23.3387 26.9052 23.5676 26.7364 23.7364C26.5676 23.9052 26.3387 24 26.1 24H3.9C3.66131 24 3.43239 23.9052 3.2636 23.7364C3.09482 23.5676 3 23.3387 3 23.1V19.5C3 18.7839 3.28446 18.0972 3.79081 17.5908C4.29716 17.0845 4.98392 16.8 5.7 16.8H6.7008V14.1C6.7008 13.3839 6.98526 12.6972 7.49161 12.1908C7.99796 11.6845 8.68472 11.4 9.4008 11.4H10.4004V8.7ZM12.2004 11.4H17.8008V8.7C17.8008 8.46131 17.706 8.23239 17.5372 8.0636C17.3684 7.89482 17.1395 7.8 16.9008 7.8H13.1004C12.8617 7.8 12.6328 7.89482 12.464 8.0636C12.2952 8.23239 12.2004 8.46131 12.2004 8.7V11.4ZM9.4008 13.2C9.16211 13.2 8.93319 13.2948 8.7644 13.4636C8.59562 13.6324 8.5008 13.8613 8.5008 14.1V16.8H14.1012V13.2H9.4008ZM15.9012 13.2V16.8H21.5004V14.1C21.5004 13.8613 21.4056 13.6324 21.2368 13.4636C21.068 13.2948 20.8391 13.2 20.6004 13.2H15.9012ZM5.7 18.6C5.46131 18.6 5.23239 18.6948 5.0636 18.8636C4.89482 19.0324 4.8 19.2613 4.8 19.5V22.2H10.4004V18.6H5.7ZM12.2004 18.6V22.2H17.8008V18.6H12.2004ZM19.6008 18.6V22.2H25.2V19.5C25.2 19.2613 25.1052 19.0324 24.9364 18.8636C24.7676 18.6948 24.5387 18.6 24.3 18.6H19.6008Z" fill="#7F8C8D"/>
</svg>
