<svg width="30" height="31" viewBox="0 0 30 31" fill="none" xmlns="http://www.w3.org/2000/svg">
<path d="M16.25 28H6.25C3.75 28 2.5 26.75 2.5 24.25V14.25C2.5 11.75 3.75 10.5 6.25 10.5H12.5V24.25C12.5 26.75 13.75 28 16.25 28Z" stroke="#7F8C8D" stroke-width="1.5" stroke-miterlimit="10" stroke-linecap="round" stroke-linejoin="round"/>
<path d="M12.6375 5.5C12.5375 5.875 12.5 6.2875 12.5 6.75V10.5H6.25V8C6.25 6.625 7.375 5.5 8.75 5.5H12.6375Z" stroke="#7F8C8D" stroke-width="1.5" stroke-miterlimit="10" stroke-linecap="round" stroke-linejoin="round"/>
<path d="M17.5 10.5V16.75" stroke="#7F8C8D" stroke-width="1.5" stroke-miterlimit="10" stroke-linecap="round" stroke-linejoin="round"/>
<path d="M22.5 10.5V16.75" stroke="#7F8C8D" stroke-width="1.5" stroke-miterlimit="10" stroke-linecap="round" stroke-linejoin="round"/>
<path d="M21.25 21.75H18.75C18.0625 21.75 17.5 22.3125 17.5 23V28H22.5V23C22.5 22.3125 21.9375 21.75 21.25 21.75Z" stroke="#7F8C8D" stroke-width="1.5" stroke-miterlimit="10" stroke-linecap="round" stroke-linejoin="round"/>
<path d="M7.5 16.75V21.75" stroke="#7F8C8D" stroke-width="1.5" stroke-miterlimit="10" stroke-linecap="round" stroke-linejoin="round"/>
<path d="M12.5 24.25V6.75C12.5 4.25 13.75 3 16.25 3H23.75C26.25 3 27.5 4.25 27.5 6.75V24.25C27.5 26.75 26.25 28 23.75 28H16.25C13.75 28 12.5 26.75 12.5 24.25Z" stroke="#7F8C8D" stroke-width="1.5" stroke-miterlimit="10" stroke-linecap="round" stroke-linejoin="round"/>
</svg>
