<svg width="14" height="14" viewBox="0 0 14 14" fill="none" xmlns="http://www.w3.org/2000/svg">
<path d="M13.92 0.564365C13.9198 0.563433 13.9198 0.562485 13.92 0.561553C13.8935 0.445714 13.8353 0.339565 13.7517 0.255083C13.6682 0.1706 13.5627 0.111146 13.4472 0.0834278C12.5159 -0.14376 11.0509 0.0984279 9.42747 0.748428C7.79122 1.40468 6.25809 2.37343 5.22184 3.41155C4.88972 3.74195 4.58115 4.09521 4.2984 4.46874C3.60059 4.43749 2.9859 4.53687 2.46809 4.7628C0.663716 5.55687 0.148403 7.58905 0.0112158 8.42343C-0.00863567 8.54198 -0.000862792 8.66352 0.0339295 8.77858C0.0687219 8.89364 0.129595 8.99911 0.211812 9.0868C0.294029 9.17449 0.395371 9.24203 0.507953 9.28415C0.620534 9.32628 0.741318 9.34186 0.860903 9.32968H0.864966L2.87497 9.1103C2.87747 9.13593 2.88028 9.15937 2.88247 9.18093C2.90828 9.42585 3.01751 9.65446 3.19184 9.82843L4.17278 10.81C4.34648 10.9846 4.57505 11.0939 4.81997 11.1197L4.88715 11.1269L4.6684 13.1344V13.1384C4.65722 13.2465 4.66873 13.3558 4.70218 13.4592C4.73563 13.5626 4.7903 13.6579 4.86268 13.739C4.93506 13.8201 5.02357 13.8852 5.12254 13.9302C5.22152 13.9751 5.32878 13.9989 5.43747 14C5.48092 14.0001 5.52429 13.9965 5.56715 13.9894C6.40622 13.8544 8.43747 13.3453 9.22934 11.5312C9.4534 11.0169 9.55247 10.4047 9.52465 9.70812C9.89987 9.42599 10.2544 9.11739 10.5856 8.78468C11.6303 7.7453 12.6022 6.22468 13.2515 4.61218C13.8981 3.00718 14.1415 1.53124 13.92 0.564365ZM10.5743 6.02937C10.3176 6.28641 9.99033 6.46151 9.63402 6.53253C9.27771 6.60355 8.90834 6.56729 8.57264 6.42834C8.23694 6.28939 7.94999 6.054 7.74811 5.75194C7.54622 5.44987 7.43846 5.09472 7.43846 4.7314C7.43846 4.36808 7.54622 4.01292 7.74811 3.71086C7.94999 3.4088 8.23694 3.1734 8.57264 3.03445C8.90834 2.8955 9.27771 2.85924 9.63402 2.93026C9.99033 3.00128 10.3176 3.17639 10.5743 3.43343C10.7464 3.60295 10.8831 3.805 10.9764 4.02783C11.0697 4.25067 11.1177 4.48983 11.1177 4.7314C11.1177 4.97297 11.0697 5.21213 10.9764 5.43496C10.8831 5.65779 10.7464 5.85985 10.5743 6.02937Z" fill="#089C3C"/>
</svg>
