<svg width="60" height="60" viewBox="0 0 60 60" fill="none" xmlns="http://www.w3.org/2000/svg">
<rect x="2" y="2" width="56" height="56" rx="28" fill="#12294B"/>
<rect x="2" y="2" width="56" height="56" rx="28" stroke="white" stroke-width="4"/>
<path d="M33.4148 25.3495C33.1254 25.3496 32.845 25.4502 32.6213 25.6339C32.3977 25.8176 32.2447 26.0732 32.1883 26.3571C32.132 26.641 32.1759 26.9357 32.3124 27.1909C32.449 27.4461 32.6698 27.646 32.9373 27.7567C33.2048 27.8673 33.5023 27.8818 33.7792 27.7976C34.0562 27.7135 34.2954 27.5359 34.4561 27.2952C34.6168 27.0545 34.689 26.7655 34.6605 26.4774C34.6321 26.1894 34.5046 25.9202 34.2998 25.7156C34.1837 25.5992 34.0458 25.507 33.8939 25.4442C33.742 25.3813 33.5792 25.3492 33.4148 25.3495Z" fill="#4391F9"/>
<path d="M40.38 20.3466C40.3798 20.3452 40.3798 20.3438 40.38 20.3424C40.3404 20.1686 40.253 20.0094 40.1276 19.8827C40.0023 19.7559 39.8441 19.6667 39.6708 19.6252C38.2739 19.2844 36.0764 19.6477 33.6413 20.6227C31.1869 21.607 28.8872 23.0602 27.3328 24.6174C26.8346 25.113 26.3718 25.6429 25.9477 26.2031C24.9009 26.1563 23.9789 26.3053 23.2022 26.6442C20.4956 27.8353 19.7227 30.8836 19.5169 32.1352C19.4871 32.313 19.4988 32.4953 19.551 32.6679C19.6031 32.8405 19.6945 32.9987 19.8178 33.1302C19.9411 33.2618 20.0931 33.3631 20.262 33.4263C20.4309 33.4895 20.612 33.5128 20.7914 33.4945H20.7975L23.8125 33.1655C23.8163 33.2039 23.8205 33.2391 23.8238 33.2714C23.8625 33.6388 24.0263 33.9817 24.2878 34.2427L25.7592 35.715C26.0198 35.9769 26.3626 36.1409 26.73 36.1795L26.8308 36.1903L26.5027 39.2016V39.2077C26.4859 39.3699 26.5032 39.5337 26.5533 39.6889C26.6035 39.844 26.6855 39.987 26.7941 40.1086C26.9027 40.2302 27.0354 40.3279 27.1839 40.3953C27.3323 40.4627 27.4932 40.4983 27.6563 40.5C27.7214 40.5001 27.7865 40.4948 27.8508 40.4841C29.1094 40.2816 32.1563 39.518 33.3441 36.7969C33.6802 36.0253 33.8288 35.107 33.787 34.0622C34.3499 33.639 34.8817 33.1761 35.3784 32.677C36.9455 31.118 38.4033 28.837 39.3774 26.4183C40.3472 24.0108 40.7124 21.7969 40.38 20.3466ZM35.3616 28.5441C34.9764 28.9296 34.4856 29.1923 33.9511 29.2988C33.4166 29.4054 32.8626 29.351 32.359 29.1425C31.8555 28.9341 31.4251 28.581 31.1222 28.1279C30.8194 27.6748 30.6577 27.1421 30.6577 26.5971C30.6577 26.0521 30.8194 25.5194 31.1222 25.0663C31.4251 24.6132 31.8555 24.2601 32.359 24.0517C32.8626 23.8433 33.4166 23.7889 33.9511 23.8954C34.4856 24.002 34.9764 24.2646 35.3616 24.6502C35.6197 24.9045 35.8247 25.2075 35.9647 25.5418C36.1046 25.876 36.1767 26.2348 36.1767 26.5971C36.1767 26.9595 36.1046 27.3182 35.9647 27.6525C35.8247 27.9867 35.6197 28.2898 35.3616 28.5441Z" fill="#4391F9"/>
<path d="M25.5905 36.1144C25.4091 36.0919 25.2257 36.1364 25.0748 36.2396C24.7753 36.4444 24.4744 36.6469 24.1706 36.8443C23.5561 37.2437 22.8211 36.5424 23.1863 35.9068L23.7558 34.9224C23.8372 34.8033 23.8825 34.6632 23.8864 34.519C23.8902 34.3748 23.8523 34.2325 23.7773 34.1092C23.7023 33.986 23.5933 33.887 23.4635 33.8241C23.3336 33.7612 23.1884 33.7371 23.0452 33.7547C22.413 33.8347 21.8255 34.1226 21.375 34.5732C21.2034 34.7452 20.6817 35.2674 20.4009 37.2572C20.321 37.8288 20.2706 38.4041 20.25 38.9808C20.2474 39.0809 20.2649 39.1805 20.3015 39.2738C20.338 39.367 20.3929 39.4519 20.4628 39.5236C20.5327 39.5953 20.6162 39.6523 20.7085 39.6912C20.8007 39.7301 20.8999 39.7501 21 39.7501H21.0188C21.5959 39.7296 22.1717 39.6795 22.7438 39.6001C24.7345 39.3188 25.2567 38.7966 25.4283 38.6251C25.8809 38.1744 26.1681 37.584 26.2434 36.9497C26.2675 36.7524 26.2123 36.5536 26.0899 36.3969C25.9674 36.2403 25.7878 36.1387 25.5905 36.1144Z" fill="white"/>
</svg>
