<svg width="24" height="25" viewBox="0 0 24 25" fill="none" xmlns="http://www.w3.org/2000/svg">
<path d="M3 10.0729V15.8429C3 17.9629 3 17.9629 5 19.3129L10.5 22.4929C11.33 22.9729 12.68 22.9729 13.5 22.4929L19 19.3129C21 17.9629 21 17.9629 21 15.8529V10.0729C21 7.96288 21 7.96288 19 6.61288L13.5 3.43288C12.68 2.95288 11.33 2.95288 10.5 3.43288L5 6.61288C3 7.96288 3 7.96288 3 10.0729Z" stroke="#7F8C8D" stroke-width="1.5" stroke-linecap="round" stroke-linejoin="round"/>
<path d="M12 15.9629C13.6569 15.9629 15 14.6197 15 12.9629C15 11.306 13.6569 9.96289 12 9.96289C10.3431 9.96289 9 11.306 9 12.9629C9 14.6197 10.3431 15.9629 12 15.9629Z" stroke="#7F8C8D" stroke-width="1.5" stroke-linecap="round" stroke-linejoin="round"/>
</svg>
