<svg width="16" height="17" viewBox="0 0 16 17" fill="none" xmlns="http://www.w3.org/2000/svg">
<path d="M3.04591 10.8384L5.95805 13.7505C7.15377 14.9462 9.09519 14.9462 10.2973 13.7505L13.1195 10.9284C14.3152 9.73265 14.3152 7.79123 13.1195 6.58908L10.2009 3.68337C9.59019 3.07266 8.74805 2.7448 7.88662 2.7898L4.67234 2.94408C3.38662 3.00194 2.36448 4.02408 2.3002 5.30337L2.14591 8.51765C2.10734 9.38551 2.4352 10.2277 3.04591 10.8384Z" stroke="white" stroke-width="0.964286" stroke-linecap="round" stroke-linejoin="round"/>
<path d="M6.47235 8.71691C7.35995 8.71691 8.07949 7.99737 8.07949 7.10977C8.07949 6.22217 7.35995 5.50262 6.47235 5.50262C5.58475 5.50262 4.8652 6.22217 4.8652 7.10977C4.8652 7.99737 5.58475 8.71691 6.47235 8.71691Z" stroke="white" stroke-width="0.964286" stroke-linecap="round"/>
<path d="M8.72235 11.9312L11.2938 9.35974" stroke="white" stroke-width="0.964286" stroke-miterlimit="10" stroke-linecap="round" stroke-linejoin="round"/>
</svg>
