<svg width="30" height="31" viewBox="0 0 30 31" fill="none" xmlns="http://www.w3.org/2000/svg">
<g clip-path="url(#clip0_217_3081)">
<path d="M26.875 24.697C26.065 24.697 25.3325 25.0145 24.7763 25.5232L20.8063 22.6357L23.7513 20.9532V10.942L20.8063 9.25949L24.7763 6.37199C25.3325 6.87949 26.065 7.19824 26.875 7.19824C28.5975 7.19824 30 5.79699 30 4.07324C30 2.34949 28.5975 0.948242 26.875 0.948242C25.1525 0.948242 23.75 2.34949 23.75 4.07324C23.75 4.53449 23.8563 4.96949 24.0375 5.36449L19.6163 8.58074L15 5.94199L10.3838 8.58074L5.96253 5.36449C6.14253 4.96949 6.25003 4.53449 6.25003 4.07324C6.25003 2.34949 4.84753 0.948242 3.12503 0.948242C1.40253 0.948242 2.9297e-05 2.34824 2.9297e-05 4.07199C2.9297e-05 5.79574 1.40253 7.19699 3.12503 7.19699C3.93503 7.19699 4.66753 6.87949 5.22378 6.37074L9.19378 9.25824L6.24878 10.9407V20.9507L9.19378 22.6332L5.22253 25.5207C4.66628 25.0132 3.93378 24.6957 3.12378 24.6957C1.40128 24.6957 -0.0012207 26.097 -0.0012207 27.8207C-0.0012207 29.5445 1.40128 30.9457 3.12378 30.9457C4.84628 30.9457 6.24878 29.5445 6.24878 27.8207C6.24878 27.3595 6.14253 26.9245 5.96128 26.5295L10.3825 23.3145L14.9988 25.9532L19.615 23.3145L24.0363 26.5307C23.8563 26.9257 23.7488 27.3607 23.7488 27.822C23.7488 29.5457 25.1513 30.947 26.8738 30.947C28.5963 30.947 29.9988 29.5457 29.9988 27.822C29.9988 26.0982 28.5975 24.697 26.875 24.697ZM26.875 2.19699C27.9088 2.19699 28.75 3.03824 28.75 4.07199C28.75 5.10574 27.9088 5.94699 26.875 5.94699C25.8413 5.94699 25 5.10574 25 4.07199C25 3.03824 25.8413 2.19699 26.875 2.19699ZM3.12503 5.94699C2.09128 5.94699 1.25003 5.10574 1.25003 4.07199C1.25003 3.03824 2.09128 2.19699 3.12503 2.19699C4.15878 2.19699 5.00003 3.03824 5.00003 4.07199C5.00003 5.10574 4.15878 5.94699 3.12503 5.94699ZM3.12503 29.697C2.09128 29.697 1.25003 28.8557 1.25003 27.822C1.25003 26.7882 2.09128 25.947 3.12503 25.947C4.15878 25.947 5.00003 26.7882 5.00003 27.822C5.00003 28.8557 4.15878 29.697 3.12503 29.697ZM15.625 24.1557V16.0932L22.5 12.1645V20.227L15.625 24.1557ZM21.6738 11.1957L15 15.0107L8.32628 11.1957L15 7.38199L21.6738 11.1957ZM7.50003 12.1645L14.375 16.0932V24.1557L7.50003 20.227V12.1645ZM26.875 29.6982C25.8413 29.6982 25 28.857 25 27.8232C25 26.7895 25.8413 25.9482 26.875 25.9482C27.9088 25.9482 28.75 26.7895 28.75 27.8232C28.75 28.857 27.9088 29.6982 26.875 29.6982Z" fill="#7F8C8D"/>
</g>
<defs>
<clipPath id="clip0_217_3081">
<rect width="30" height="30" fill="white" transform="translate(0 0.947021)"/>
</clipPath>
</defs>
</svg>
