<svg width="24" height="25" viewBox="0 0 24 25" fill="none" xmlns="http://www.w3.org/2000/svg">
<path d="M21 6.94287C17.67 6.61287 14.32 6.44287 10.98 6.44287C9 6.44287 7.02 6.54287 5.04 6.74287L3 6.94287" stroke="#7F8C8D" stroke-width="1.5" stroke-linecap="round" stroke-linejoin="round"/>
<path d="M8.5 5.93289L8.72 4.62289C8.88 3.67289 9 2.96289 10.69 2.96289H13.31C15 2.96289 15.13 3.71289 15.28 4.63289L15.5 5.93289" stroke="#7F8C8D" stroke-width="1.5" stroke-linecap="round" stroke-linejoin="round"/>
<path d="M18.8499 10.1029L18.1999 20.1729C18.0899 21.7429 17.9999 22.9629 15.2099 22.9629H8.7899C5.9999 22.9629 5.9099 21.7429 5.7999 20.1729L5.1499 10.1029" stroke="#7F8C8D" stroke-width="1.5" stroke-linecap="round" stroke-linejoin="round"/>
<path d="M10.3301 17.4629H13.6601" stroke="#7F8C8D" stroke-width="1.5" stroke-linecap="round" stroke-linejoin="round"/>
<path d="M9.5 13.4629H14.5" stroke="#7F8C8D" stroke-width="1.5" stroke-linecap="round" stroke-linejoin="round"/>
</svg>
